# xmcd
#
# Track frame offsets:
#	150
#	11417
#	25794
#	47490
#	59830
#	84172
#	113437
#	127732
#	148157
#	160900
#	178282
#	197190
#	213320
#
# Disc length: 3146 seconds
#
# Revision: 1
# Processed by: cddbd v1.5.2PL0 Copyright (c) Steve Scherf et al.
# Submitted via: audiograbber 1.83.01
#
DISCID=ab0c480d
DTITLE=Peps Persson - The Week Peps Came To Chicago CD1
DYEAR=1972
DGENRE=Blues 70압
TTITLE0=Apollo 15 - With Sunnyland Slim And Carey Bell
TTITLE1=Youre A Part Of It - With Sunnyland Slim And Carey Bell
TTITLE2=There압 Tears In Your Eyes - With Sunnyland Slim And Carey Bell
TTITLE3=Your Loving Eases My Load - With Sunnyland Slim And Carey Bell
TTITLE4=Carey Bell압 Blues - With Sunnyland Slim And Carey Bell
TTITLE5=There압 Tears In Your Eyes (Alternate Take)
TTITLE6=Born In The Country - With Mighty Joe Young압 Band
TTITLE7=Five O앆lock In The Morning - With Mighty Joe Young압 Band
TTITLE8=Jump - With Mighty Joe Young압 Band
TTITLE9=The War Is Over - With Mighty Joe Young압 Band
TTITLE10=Mighty Joe - With Mighty Joe Young압 Band
TTITLE11=Born In The Country (Alternate Take)
TTITLE12=Mighty Joe (Alternate Take)
EXTD=YEAR: 1972
EXTT0=
EXTT1=
EXTT2=
EXTT3=
EXTT4=
EXTT5=
EXTT6=
EXTT7=
EXTT8=
EXTT9=
EXTT10=
EXTT11=
EXTT12=
PLAYORDER=
